# xmcd
# Copyright (C) 1995-1998 Ti Kan
#
# Track frame offsets:
#       150
#       12612
#       25371
#       40203
#       50128
#       60611
#       72937
#       84777
#       96646
#       105715
#
# Disc length: 1750 seconds
#
# Revision: 0
# Processed by: cddbd v1.5.2PL0 Copyright (c) Steve Scherf et al.
# Submitted via: CD-Transfer v1.0
#
DISCID=8906d40a
DTITLE=Chór Zespo³u Artystycznego Wojska Polskiego - 
DYEAR=14
DGENRE=
TTITLE0=Czerwone Maki
TTITLE1=Szturmówka
TTITLE2=Modlitwa Obozowa
TTITLE3=Dywizjon 303 
TTITLE4=Marsz Lotników
TTITLE5=Karpacka Brygada
TTITLE6=Marsz 2 Korpusu
TTITLE7=Czerwone Maki
TTITLE8=Pierwsza Pancerna
TTITLE9=Wróc¹ Ch³opcy Z Wojny
EXTD=
EXTT0=
EXTT1=
EXTT2=
EXTT3=
EXTT4=
EXTT5=
EXTT6=
EXTT7=
EXTT8=
EXTT9=
PLAYORDER=
